<svg xmlns="http://www.w3.org/2000/svg" width="663" height="808" viewBox="0 0 663 808" fill="none"><g clip-path="url(#clip0_616_887)"><path d="M644.243 75.7917H559.778L345.48 336.908M645.208 315.671H558.33L329.069 541.553H567.501L594.529 554.585H644.243" stroke="url(#paint0_linear_616_887)"></path><path d="M16.7919 87.3755H108.014L320.864 336.908M13.4133 320.015H108.496L337.275 541.553H98.8432L72.2972 562.308H13.4133" stroke="url(#paint1_linear_616_887)"></path><g filter="url(#filter0_f_616_887)"><ellipse cx="644.243" cy="75.7919" rx="5.79185" ry="5.79185" fill="#1EAA29"></ellipse></g><circle cx="644.243" cy="75.7917" r="3.86124" fill="#1EAA29"></circle><g filter="url(#filter1_f_616_887)"><ellipse cx="645.208" cy="315.189" rx="5.79185" ry="5.79185" fill="#1EAA29"></ellipse></g><circle cx="645.208" cy="315.189" r="3.86124" fill="#1EAA29"></circle><g filter="url(#filter2_f_616_887)"><ellipse cx="644.243" cy="554.585" rx="5.79185" ry="5.79185" fill="#1EAA29"></ellipse></g><circle cx="644.243" cy="554.585" r="3.86124" fill="#1EAA29"></circle><g filter="url(#filter3_f_616_887)"><ellipse cx="16.7919" cy="562.308" rx="5.79185" ry="5.79185" fill="#1EAA29"></ellipse></g><circle cx="16.7919" cy="562.308" r="3.86124" fill="#1EAA29"></circle><g filter="url(#filter4_f_616_887)"><ellipse cx="16.7919" cy="320.015" rx="5.79185" ry="5.79185" fill="#1EAA29"></ellipse></g><circle cx="16.7919" cy="320.015" r="3.86124" fill="#1EAA29"></circle><g filter="url(#filter5_f_616_887)"><ellipse cx="16.7919" cy="87.3758" rx="5.79185" ry="5.79185" fill="#1EAA29"></ellipse></g><circle cx="16.7919" cy="87.3756" r="3.86124" fill="#1EAA29"></circle></g><defs><filter id="filter0_f_616_887" x="623.851" y="55.4" width="40.7837" height="40.7837" filterUnits="userSpaceOnUse" color-interpolation-filters="sRGB"><feGaussianBlur stdDeviation="7.3" result="effect1_foregroundBlur_616_887"></feGaussianBlur></filter><filter id="filter1_f_616_887" x="624.816" y="294.797" width="40.7837" height="40.7837" filterUnits="userSpaceOnUse" color-interpolation-filters="sRGB"><feGaussianBlur stdDeviation="7.3" result="effect1_foregroundBlur_616_887"></feGaussianBlur></filter><filter id="filter2_f_616_887" x="623.851" y="534.193" width="40.7837" height="40.7837" filterUnits="userSpaceOnUse" color-interpolation-filters="sRGB"><feGaussianBlur stdDeviation="7.3" result="effect1_foregroundBlur_616_887"></feGaussianBlur></filter><filter id="filter3_f_616_887" x="-3.6" y="541.916" width="40.7837" height="40.7837" filterUnits="userSpaceOnUse" color-interpolation-filters="sRGB"><feGaussianBlur stdDeviation="7.3" result="effect1_foregroundBlur_616_887"></feGaussianBlur></filter><filter id="filter4_f_616_887" x="-3.6" y="299.623" width="40.7837" height="40.7837" filterUnits="userSpaceOnUse" color-interpolation-filters="sRGB"><feGaussianBlur stdDeviation="7.3" result="effect1_foregroundBlur_616_887"></feGaussianBlur></filter><filter id="filter5_f_616_887" x="-3.6" y="66.984" width="40.7837" height="40.7837" filterUnits="userSpaceOnUse" color-interpolation-filters="sRGB"><feGaussianBlur stdDeviation="7.3" result="effect1_foregroundBlur_616_887"></feGaussianBlur></filter><linearGradient id="paint0_linear_616_887" x1="491.241" y1="82.5489" x2="613.353" y2="597.059" gradientUnits="userSpaceOnUse"><stop stop-color="#1EAA29" stop-opacity="0.9"></stop><stop offset="0.51" stop-color="#8DEF95" stop-opacity="0.8"></stop><stop offset="1" stop-color="#078510"></stop></linearGradient><linearGradient id="paint1_linear_616_887" x1="175.103" y1="82.5489" x2="52.991" y2="597.059" gradientUnits="userSpaceOnUse"><stop stop-color="#1EAA29" stop-opacity="0.9"></stop><stop offset="0.51" stop-color="#8DEF95" stop-opacity="0.8"></stop><stop offset="1" stop-color="#078510"></stop></linearGradient><clipPath id="clip0_616_887"><rect width="663" height="808" fill="white"></rect></clipPath></defs></svg>