<svg xmlns="http://www.w3.org/2000/svg" width="99" height="94" viewBox="0 0 99 94" fill="none"><path d="M22.9317 5.78799C22.9317 5.78799 18.0742 25.2195 20.0175 39.5488C21.9608 53.8797 25.3597 64.4452 40.5387 67.2379H57.5377C57.5377 67.2379 75.9937 68.5733 79.0298 40.2775C80.4869 27.8902 77.6946 10.16 75.8733 6.15233C68.5878 10.16 62.1528 14.41 62.1528 14.41C62.1528 14.41 70.8954 29.5899 71.6239 42.4634C72.1102 49.7501 69.5602 62.5016 57.2953 66.3873H40.903C40.903 66.3873 27.1826 61.1647 27.0606 45.0138C27.1826 30.6829 36.7741 14.1676 36.7741 14.1676L22.9317 5.78799Z" fill="white"></path><path d="M67.7305 52.5733C66.2441 56.8727 63.4348 60.374 59.7149 62.5785V24.5429C59.7149 23.0779 58.531 21.8923 57.0678 21.8923H41.8223C40.3606 21.8923 39.1751 23.0764 39.1751 24.5429V62.5028C36.4523 60.9128 34.1571 58.6125 32.5596 55.6114C30.1779 51.1422 29.6315 46.2052 30.0868 41.2806C30.4804 37.0336 31.6226 32.796 32.9748 28.8732C35.5077 21.5187 39.1721 14.5609 43.4692 8.08784C44.7843 6.11181 46.1612 4.17746 47.6152 2.29868C48.177 1.57156 49.0414 0.815114 49.4767 0C49.4767 0.199147 51.0572 1.97603 51.1715 2.12424C52.6517 4.07557 54.0502 6.08711 55.3807 8.14187C59.6053 14.6597 63.1832 21.636 65.7594 28.9674C68.4359 36.5875 70.4579 44.6846 67.7289 52.5748L67.7305 52.5733Z" fill="white"></path><path d="M46.0464 18.8846H53.0016C53.5557 18.8846 54.0064 19.3357 54.0064 19.8904V21.4616C54.0064 21.7057 53.8088 21.9035 53.565 21.9035H45.4815C45.2376 21.9035 45.04 21.7057 45.04 21.4616V19.8904C45.04 19.3357 45.4907 18.8846 46.0449 18.8846H46.0464Z" fill="white"></path><path d="M56.7913 45.7759H42.4812C42.0763 45.7759 41.748 46.1046 41.748 46.5102V49.6065C41.748 50.012 42.0763 50.3408 42.4812 50.3408H56.7913C57.1962 50.3408 57.5245 50.012 57.5245 49.6065V46.5102C57.5245 46.1046 57.1962 45.7759 56.7913 45.7759Z" fill="white"></path><path d="M56.7913 52.5281H42.4812C42.0763 52.5281 41.748 52.8569 41.748 53.2624V56.3587C41.748 56.7643 42.0763 57.093 42.4812 57.093H56.7913C57.1962 57.093 57.5245 56.7643 57.5245 56.3587V53.2624C57.5245 52.8569 57.1962 52.5281 56.7913 52.5281Z" fill="white"></path><path d="M56.7913 59.2799H42.4812C42.0763 59.2799 41.748 59.6087 41.748 60.0142V63.1105C41.748 63.516 42.0763 63.8448 42.4812 63.8448H56.7913C57.1962 63.8448 57.5245 63.516 57.5245 63.1105V60.0142C57.5245 59.6087 57.1962 59.2799 56.7913 59.2799Z" fill="white"></path><path d="M50.3367 24.7273L43.9805 34.3064L50.0404 36.2145L48.0492 43.1229L54.2357 34.6461L48.1341 33.2474L50.3367 24.7273Z" fill="white"></path><path d="M10.2336 90.6386H0V93.0361H9.94498C10.246 93.0361 10.5377 92.9805 10.8202 92.8694C11.1026 92.7582 11.3527 92.6038 11.5688 92.4062C11.7849 92.2086 11.9562 91.9632 12.0828 91.6714C12.2093 91.3796 12.2726 91.0477 12.2726 90.6741V89.3789C12.2726 89.0763 12.2124 88.7984 12.092 88.5468C11.9716 88.2967 11.8127 88.0775 11.6135 87.8907C11.4144 87.7039 11.186 87.5619 10.9282 87.4615C10.6689 87.3627 10.4019 87.3133 10.1256 87.3133H2.05753V86.2635H12.2726V83.8661H2.34617C2.04518 83.8661 1.75345 83.9216 1.47099 84.0328C1.18852 84.1439 0.938468 84.2983 0.722373 84.4959C0.506279 84.6951 0.331859 84.9421 0.199116 85.24C0.0663719 85.538 0 85.8668 0 86.2296V87.5248C0 87.8289 0.0601978 88.1053 0.180593 88.3569C0.300989 88.6085 0.459973 88.8262 0.659088 89.013C0.858204 89.1998 1.08665 89.3434 1.34442 89.4422C1.60373 89.541 1.87076 89.5904 2.14705 89.5904H10.2321V90.6401L10.2336 90.6386Z" fill="white"></path><path d="M47.3358 78.4024H44.0527V93.0374H63.6371V89.1826H47.3358V78.4024Z" fill="white"></path><path d="M41.8064 78.4024H38.494V82.2344H41.8064V78.4024Z" fill="white"></path><path d="M41.8066 83.877H38.4941V93.0378H41.8066V83.877Z" fill="white"></path><path d="M17.3847 83.877H14.1016V93.0378H17.3847V83.877Z" fill="white"></path><path d="M14.1016 78.4024V82.2279H17.3275L24.153 93.0374H26.1982L32.9651 82.3406V93.0374H36.2482V78.4024H31.525L25.1888 88.3721L18.8248 78.4024H14.1016Z" fill="white"></path><path d="M81.5027 79.807H65.4453V83.2043H81.5027V79.807Z" fill="white"></path><path d="M81.5011 92.7885V89.369H68.1372V87.9071H81.5011V84.662H65.4453V92.7885H81.5011Z" fill="white"></path><path d="M82.9434 79.807L89.7195 92.7901H92.2231L98.9992 79.807H95.8596L90.9713 89.048L86.0598 79.807H82.9434Z" fill="white"></path><path d="M54.7117 79.9399H52.7051L55.3075 83.9228L52.7051 87.9057H54.7117L56.7646 84.9108V82.9193L54.7117 79.9399Z" fill="white"></path><path d="M59.2726 84.9108L61.3579 87.9057H63.3645L60.7467 83.9228L63.3645 79.9399H61.3579L59.2726 82.9193H57.3926V84.9108H59.2726Z" fill="white"></path></svg>