<svg xmlns="http://www.w3.org/2000/svg" width="75" height="71" viewBox="0 0 75 71" fill="none"><path d="M17.3726 4.38489C17.3726 4.38489 13.6927 19.1058 15.1649 29.9615C16.6371 40.8183 19.212 48.8226 30.7114 50.9383H43.5895C43.5895 50.9383 57.5715 51.9499 59.8716 30.5135C60.9754 21.1291 58.8601 7.69701 57.4802 4.6609C51.9609 7.69701 47.0859 10.9167 47.0859 10.9167C47.0859 10.9167 53.7091 22.4168 54.261 32.1695C54.6294 37.6898 52.6976 47.3501 43.4059 50.2938H30.9874C30.9874 50.2938 20.593 46.3373 20.5006 34.1016C20.593 23.2448 27.8594 10.7331 27.8594 10.7331L17.3726 4.38489Z" fill="white"></path><path d="M51.3114 39.8286C50.1853 43.0857 48.0571 45.7382 45.2389 47.4083V18.5933C45.2389 17.4834 44.3421 16.5852 43.2335 16.5852H31.6838C30.5764 16.5852 29.6784 17.4822 29.6784 18.5933V47.351C27.6156 46.1464 25.8768 44.4038 24.6665 42.1302C22.8622 38.7444 22.4483 35.0042 22.7932 31.2734C23.0914 28.056 23.9567 24.8456 24.9811 21.8738C26.9 16.3022 29.676 11.0311 32.9315 6.1272C33.9278 4.6302 34.9709 3.16477 36.0724 1.74144C36.498 1.19059 37.1529 0.617515 37.4826 0C37.4826 0.15087 38.6801 1.49701 38.7666 1.60928C39.888 3.08758 40.9474 4.61148 41.9554 6.16814C45.1559 11.1059 47.8665 16.3911 49.8181 21.9452C51.8458 27.718 53.3776 33.8522 51.3102 39.8297L51.3114 39.8286Z" fill="white"></path><path d="M34.8839 14.3066H40.153C40.5728 14.3066 40.9143 14.6484 40.9143 15.0686V16.2589C40.9143 16.4438 40.7646 16.5937 40.5798 16.5937H34.456C34.2712 16.5937 34.1215 16.4438 34.1215 16.2589V15.0686C34.1215 14.6484 34.463 14.3066 34.8828 14.3066H34.8839Z" fill="white"></path><path d="M43.0241 34.679H32.183C31.8762 34.679 31.6276 34.928 31.6276 35.2353V37.581C31.6276 37.8882 31.8762 38.1373 32.183 38.1373H43.0241C43.3308 38.1373 43.5795 37.8882 43.5795 37.581V35.2353C43.5795 34.928 43.3308 34.679 43.0241 34.679Z" fill="white"></path><path d="M43.0241 39.7944H32.183C31.8762 39.7944 31.6276 40.0434 31.6276 40.3506V42.6964C31.6276 43.0036 31.8762 43.2526 32.183 43.2526H43.0241C43.3308 43.2526 43.5795 43.0036 43.5795 42.6964V40.3506C43.5795 40.0434 43.3308 39.7944 43.0241 39.7944Z" fill="white"></path><path d="M43.0241 44.9094H32.183C31.8762 44.9094 31.6276 45.1584 31.6276 45.4657V47.8114C31.6276 48.1186 31.8762 48.3677 32.183 48.3677H43.0241C43.3308 48.3677 43.5795 48.1186 43.5795 47.8114V45.4657C43.5795 45.1584 43.3308 44.9094 43.0241 44.9094Z" fill="white"></path><path d="M38.1342 18.733L33.3188 25.9899L37.9097 27.4355L36.4012 32.6692L41.088 26.2472L36.4655 25.1876L38.1342 18.733Z" fill="white"></path><path d="M7.7528 68.6662H0V70.4825H7.53414C7.76216 70.4825 7.98317 70.4404 8.19716 70.3562C8.41115 70.2719 8.60058 70.155 8.76429 70.0053C8.928 69.8556 9.0578 69.6696 9.15369 69.4486C9.24957 69.2276 9.29752 68.9761 9.29752 68.6931V67.7118C9.29752 67.4826 9.25191 67.2721 9.1607 67.0815C9.06949 66.892 8.94905 66.7259 8.7982 66.5844C8.64736 66.4429 8.47429 66.3353 8.27901 66.2593C8.08256 66.1844 7.88026 66.147 7.67095 66.147H1.55875V65.3517H9.29752V63.5354H1.77742C1.54939 63.5354 1.32838 63.5775 1.11439 63.6617C0.900401 63.7459 0.710966 63.8629 0.547257 64.0126C0.383547 64.1635 0.251411 64.3506 0.150846 64.5763C0.0502821 64.802 0 65.0511 0 65.326V66.3072C0 66.5376 0.0456047 66.747 0.136814 66.9376C0.228024 67.1282 0.348467 67.2931 0.499313 67.4346C0.65016 67.5762 0.823224 67.6849 1.01851 67.7598C1.21496 67.8346 1.41725 67.8721 1.62657 67.8721H7.75164V68.6673L7.7528 68.6662Z" fill="white"></path><path d="M35.8608 59.3963H33.3736V70.4835H48.2103V67.5631H35.8608V59.3963Z" fill="white"></path><path d="M31.6718 59.3963H29.1624V62.2993H31.6718V59.3963Z" fill="white"></path><path d="M31.6719 63.5437H29.1625V70.4837H31.6719V63.5437Z" fill="white"></path><path d="M13.1703 63.5437H10.6831V70.4837H13.1703V63.5437Z" fill="white"></path><path d="M10.6831 59.3963V62.2944H13.127L18.2979 70.4835H19.8473L24.9737 62.3797V70.4835H27.461V59.3963H23.8827L19.0825 66.9491L14.2613 59.3963H10.6831Z" fill="white"></path><path d="M61.745 60.4603H49.5802V63.0341H61.745V60.4603Z" fill="white"></path><path d="M61.7438 70.2949V67.7043H51.6196V66.5968H61.7438V64.1384H49.5802V70.2949H61.7438Z" fill="white"></path><path d="M62.8364 60.4603L67.9699 70.2961H69.8665L75 60.4603H72.6215L68.9182 67.4612L65.1973 60.4603H62.8364Z" fill="white"></path><path d="M41.4486 60.561H39.9284L41.8999 63.5784L39.9284 66.5958H41.4486L43.0038 64.3269V62.8182L41.4486 60.561Z" fill="white"></path><path d="M44.9039 64.3269L46.4836 66.5958H48.0038L46.0206 63.5784L48.0038 60.561H46.4836L44.9039 62.8182H43.4796V64.3269H44.9039Z" fill="white"></path></svg>