<svg xmlns="http://www.w3.org/2000/svg" width="50" height="47" viewBox="0 0 50 47" fill="none"><path d="M11.5818 2.92325C11.5818 2.92325 9.12846 12.7372 10.1099 19.9743C11.0914 27.2122 12.808 32.5484 20.4743 33.9588H29.0597C29.0597 33.9588 38.381 34.6333 39.9144 20.3423C40.6503 14.0861 39.2401 5.13133 38.3202 3.10726C34.6406 5.13133 31.3906 7.27782 31.3906 7.27782C31.3906 7.27782 35.8061 14.9445 36.174 21.4464C36.4196 25.1265 35.1317 31.5667 28.9373 33.5292H20.6583C20.6583 33.5292 13.7287 30.8915 13.6671 22.7344C13.7287 15.4965 18.5729 7.15541 18.5729 7.15541L11.5818 2.92325Z" fill="white"></path><path d="M34.2076 26.5524C33.4569 28.7238 32.0381 30.4922 30.1593 31.6056V12.3955C30.1593 11.6556 29.5614 11.0568 28.8224 11.0568H21.1226C20.3843 11.0568 19.7856 11.6548 19.7856 12.3955V31.5674C18.4104 30.7643 17.2512 29.6025 16.4444 28.0868C15.2415 25.8296 14.9655 23.3362 15.1955 20.8489C15.3943 18.704 15.9712 16.5638 16.6541 14.5826C17.9334 10.8681 19.784 7.35405 21.9544 4.0848C22.6186 3.0868 23.3139 2.10984 24.0483 1.16096C24.332 0.793726 24.7686 0.411677 24.9884 0C24.9884 0.10058 25.7867 0.998005 25.8444 1.07286C26.592 2.05838 27.2983 3.07432 27.9703 4.11209C30.104 7.40395 31.911 10.9274 33.2121 14.6301C34.5639 18.4787 35.5851 22.5682 34.2068 26.5532L34.2076 26.5524Z" fill="white"></path><path d="M23.256 9.53777H26.7687C27.0486 9.53777 27.2762 9.76561 27.2762 10.0457V10.8393C27.2762 10.9626 27.1764 11.0624 27.0532 11.0624H22.9706C22.8475 11.0624 22.7477 10.9626 22.7477 10.8393V10.0457C22.7477 9.76561 22.9753 9.53777 23.2552 9.53777H23.256Z" fill="white"></path><path d="M28.6827 23.1193H21.4553C21.2508 23.1193 21.085 23.2854 21.085 23.4902V25.054C21.085 25.2588 21.2508 25.4248 21.4553 25.4248H28.6827C28.8872 25.4248 29.053 25.2588 29.053 25.054V23.4902C29.053 23.2854 28.8872 23.1193 28.6827 23.1193Z" fill="white"></path><path d="M28.6827 26.5296H21.4553C21.2508 26.5296 21.085 26.6956 21.085 26.9004V28.4643C21.085 28.6691 21.2508 28.8351 21.4553 28.8351H28.6827C28.8872 28.8351 29.053 28.6691 29.053 28.4643V26.9004C29.053 26.6956 28.8872 26.5296 28.6827 26.5296Z" fill="white"></path><path d="M28.6827 29.9396H21.4553C21.2508 29.9396 21.085 30.1056 21.085 30.3104V31.8743C21.085 32.0791 21.2508 32.2451 21.4553 32.2451H28.6827C28.8872 32.2451 29.053 32.0791 29.053 31.8743V30.3104C29.053 30.1056 28.8872 29.9396 28.6827 29.9396Z" fill="white"></path><path d="M25.4228 12.4886L22.2125 17.3266L25.2731 18.2903L24.2675 21.7794L27.392 17.4982L24.3103 16.7918L25.4228 12.4886Z" fill="white"></path><path d="M5.16854 45.7774H0V46.9883H5.02276C5.17477 46.9883 5.32211 46.9602 5.46477 46.9041C5.60743 46.848 5.73372 46.77 5.84286 46.6702C5.952 46.5704 6.03853 46.4464 6.10246 46.2991C6.16638 46.1517 6.19835 45.9841 6.19835 45.7954V45.1412C6.19835 44.9884 6.16794 44.8481 6.10714 44.721C6.04633 44.5947 5.96603 44.4839 5.86547 44.3896C5.76491 44.2953 5.64953 44.2235 5.51934 44.1728C5.38837 44.1229 5.25351 44.098 5.11397 44.098H1.03916V43.5678H6.19835V42.3569H1.18494C1.03293 42.3569 0.885589 42.385 0.742928 42.4411C0.600267 42.4973 0.473977 42.5753 0.364838 42.6751C0.255698 42.7756 0.167607 42.9004 0.100564 43.0509C0.0335214 43.2013 0 43.3674 0 43.5506V44.2048C0 44.3584 0.0304032 44.498 0.0912095 44.6251C0.152016 44.7521 0.232311 44.8621 0.332876 44.9564C0.43344 45.0508 0.548816 45.1233 0.679004 45.1732C0.809971 45.2231 0.944837 45.248 1.08438 45.248H5.16776V45.7782L5.16854 45.7774Z" fill="white"></path><path d="M23.9072 39.5975H22.249V46.989H32.1402V45.0421H23.9072V39.5975Z" fill="white"></path><path d="M21.1145 39.5975H19.4416V41.5329H21.1145V39.5975Z" fill="white"></path><path d="M21.1146 42.3625H19.4417V46.9892H21.1146V42.3625Z" fill="white"></path><path d="M8.78021 42.3625H7.12207V46.9892H8.78021V42.3625Z" fill="white"></path><path d="M7.12207 39.5975V41.5296H8.75137L12.1986 46.989H13.2315L16.6492 41.5865V46.989H18.3073V39.5975H15.9218L12.7217 44.6327L9.50755 39.5975H7.12207Z" fill="white"></path><path d="M41.1633 40.3069H33.0535V42.0227H41.1633V40.3069Z" fill="white"></path><path d="M41.1625 46.8633V45.1362H34.413V44.3979H41.1625V42.759H33.0535V46.8633H41.1625Z" fill="white"></path><path d="M41.8909 40.3069L45.3132 46.8641H46.5777L50 40.3069H48.4144L45.9455 44.9741L43.4649 40.3069H41.8909Z" fill="white"></path><path d="M27.6324 40.374H26.619L27.9333 42.3856L26.619 44.3972H27.6324L28.6692 42.8846V41.8788L27.6324 40.374Z" fill="white"></path><path d="M29.9359 42.8846L30.9891 44.3972H32.0025L30.6804 42.3856L32.0025 40.374H30.9891L29.9359 41.8788H28.9864V42.8846H29.9359Z" fill="white"></path></svg>